<?xml version="1.0" encoding="UTF-8"?>
<svg width="1200pt" height="1200pt" version="1.1" viewBox="0 0 1200 1200" xmlns="http://www.w3.org/2000/svg">
 <path d="m1060.1 543.89c1.4258 15.367 2.1875 30.809 2.1875 46.27 0 12.141-0.45703 24.176-1.3125 36.102 18.191-6.6055 30.82-22.656 30.82-41.02 0.003907-18.793-13-34.984-31.695-41.352z"/>
 <path d="m304.92 619.67c0 79.598 31.215 154.21 87.895 210.11 56.668 55.887 131.75 86.027 211.4 84.941 161.15-2.2461 291.63-135.25 290.87-296.48-0.46484-98.668-49.734-189.84-131.94-244.47h-68.852c83.367 36.469 141.77 119.73 141.77 216.39 0 130.17-105.9 236.07-236.07 236.07s-236.07-105.9-236.07-236.07c0-84.094 44.207-158.05 110.59-199.87-109.2 32.578-169.61 112.26-169.61 229.38z"/>
 <path d="m78.688 590.16c0 265.76 216.21 481.97 481.97 481.97s481.97-216.21 481.97-481.97c0-75.09-17.684-149.78-51.188-216.39h-194.94c74.117 59.18 117.8 148.46 118.26 244.38 0.8125 171.98-138.37 313.85-310.27 316.25-1.5039 0.023438-3.0234 0.03125-4.5234 0.03125-83.281 0.003907-161.59-32.082-220.96-90.637-60.465-59.621-93.758-139.21-93.758-224.12 0-75.852 25.082-140.17 72.535-185.99 54.688-52.809 136.18-79.582 242.22-79.582h550.82v-245.9h-590.16c-265.76 0-481.97 216.21-481.97 481.96z"/>
 <path d="m551.81 600h-108.85c1.3438 21.676 7.0977 42.168 16.371 60.609l94.094-54.77c-0.64453-1.9023-1.2109-3.8398-1.6172-5.8398z"/>
 <path d="m563.34 622.83-94.113 54.781c11.609 17.301 26.559 32.172 43.914 43.703l54.395-94.305c-1.4805-1.3047-2.8789-2.7031-4.1953-4.1797z"/>
 <path d="m609.84 638.36v108.85c21.453-1.332 41.75-6.9727 60.043-16.078l-54.398-94.312c-1.8398 0.60938-3.7148 1.1484-5.6445 1.543z"/>
 <path d="m530.18 731.15c18.277 9.0898 38.551 14.719 59.984 16.051v-108.85c-1.9062-0.38672-3.7617-0.91797-5.5781-1.5195z"/>
 <path d="m316.25 1028.1c-13.676-7.6641-26.957-15.945-39.809-24.812h-228.68c-22.645 0-42.508 17.031-45.23 38.773l-2.5273 20.238h317.43c-1.7305-6.2344-2.6719-12.836-2.6719-19.672 0-4.9062 0.53516-9.7578 1.4922-14.527z"/>
 <path d="m60.328 626.27c-0.85547-11.926-1.3125-23.961-1.3125-36.102 0-15.598 0.75391-31.02 2.1523-46.258-18.672 6.3828-31.66 22.574-31.66 41.34 0 18.363 12.629 34.414 30.82 41.02z"/>
 <path d="m88.523 759.69v223.92h161.29c-72.781-57.629-129.25-134.98-161.29-223.92z"/>
 <path d="m334.43 1042.6c0 27.117 19.855 49.18 44.262 49.18 14.934 0 28.465-8.1875 36.582-21.508-27.98-8.4883-54.938-19.352-80.625-32.371-0.13281 1.5547-0.21875 3.1211-0.21875 4.6992z"/>
 <path d="m769.11 1046.4c8.3008 9.9844 20.078 15.906 32.527 15.906 24.406 0 44.262-22.062 44.262-49.18 0-3.375-0.31641-6.6836-0.91406-9.9141-23.883 16.492-49.25 30.973-75.875 43.188z"/>
 <path d="m377.42 123.18c-9.3242-9.082-21.234-14.398-33.641-14.938-12.273-0.53906-23.645 3.707-31.891 11.957-10.496 10.496-14.285 25.711-10.707 40.789 24.16-14.66 49.648-27.34 76.238-37.809z"/>
 <path d="m590.16 541.98v-108.85c-21.496 1.332-41.828 7-60.148 16.137l54.391 94.297c1.8789-0.63281 3.7891-1.1875 5.7578-1.5859z"/>
 <path d="m553.47 574.37-94.078-54.762c-9.3086 18.469-15.082 39.004-16.43 60.727h108.85c0.42188-2.0469 1-4.0234 1.6602-5.9648z"/>
 <path d="m567.39 553.45-54.406-94.332c-17.254 11.492-32.129 26.289-43.688 43.496l94.133 54.793c1.2422-1.3945 2.5664-2.7148 3.9609-3.957z"/>
 <path d="m1195.1 108.2h-24.59v245.9h24.59c2.7109 0 4.918-2.207 4.918-4.918v-236.07c0-2.7148-2.207-4.918-4.918-4.918z"/>
 <path d="m600 806.56c119.32 0 216.39-97.074 216.39-216.39 0-119.32-97.074-216.39-216.39-216.39s-216.39 97.074-216.39 216.39c0 119.32 97.074 216.39 216.39 216.39zm0-393.44c97.625 0 177.05 79.422 177.05 177.05 0 97.625-79.422 177.05-177.05 177.05-97.625 0-177.05-79.422-177.05-177.05 0-97.629 79.426-177.05 177.05-177.05z"/>
 <path d="m648.19 580.33h108.85c-1.3438-21.707-7.1172-42.227-16.41-60.688l-94.086 54.766c0.66016 1.9258 1.2383 3.8906 1.6484 5.9219z"/>
 <path d="m646.59 605.8 94.098 54.773c9.2617-18.434 15.012-38.91 16.355-60.574h-108.85c-0.41016 1.9805-0.96875 3.9062-1.6055 5.8008z"/>
 <path d="m632.51 626.97 54.398 94.316c17.344-11.535 32.281-26.402 43.883-43.699l-94.105-54.777c-1.3086 1.4648-2.7031 2.8555-4.1758 4.1602z"/>
 <path d="m670.05 449.29c-18.336-9.1562-38.691-14.832-60.211-16.164v108.85c1.9922 0.40625 3.9258 0.96875 5.8242 1.6094z"/>
 <path d="m629.51 590.16c0 16.297-13.211 29.508-29.508 29.508s-29.508-13.211-29.508-29.508c0-16.297 13.211-29.508 29.508-29.508s29.508 13.211 29.508 29.508z"/>
 <path d="m636.6 557.43 94.125-54.785c-11.551-17.199-26.414-31.996-43.656-43.492l-54.414 94.344c1.3906 1.2305 2.707 2.5469 3.9453 3.9336z"/>
</svg>
