<?xml version="1.0" encoding="UTF-8"?>
<svg width="1200pt" height="1200pt" version="1.1" viewBox="0 0 1200 1200" xmlns="http://www.w3.org/2000/svg">
 <path d="m1099.5 364.5c-12.203-5.1836-23.496-5.2305-33.91 4.3672-5.2812 4.8828-11.258 9.0469-17.039 13.367-1.9453 1.4414-4.2617 2.3867-6.4453 3.4805-5.7109 2.8086-11.773 5.0391-17.051 8.4844-6.9492 4.5352-13.273 10.031-20.52 15.602-1.043-3.7578-1.7891-6.1094-2.3516-8.4961-5.0742-21.637-5.5078-21.84-27.73-23.27-5.5781-0.35938-8.3984 1.2344-10.57 6.6016-6.0469 14.953-14.473 28.441-27.707 38.219-11.977 8.8672-20.832 8.5312-31.094-2.125-6.6953-6.9609-12.059-15.156-18.254-22.609-1.5859-1.9219-5.0273-4.8945-5.8555-4.4023-5.5078 3.2539-11.125 6.7812-15.395 11.438-1.3438 1.4648 1.2734 6.6133 2.1484 10.066 0.42188 1.6914 0.96094 3.3594 1.9336 6.6719-11.125-9.2539-20.797-17.316-31.57-26.27 11.566-7.9453 22.043-15.023 32.398-22.297 6.2891-4.4297 12.625-8.8789 18.551-13.766 6.9844-5.7734 13.391-12.254 20.398-18 4.8008-3.9258 10.199-7.1289 15.359-10.598 7.8477-5.2695 11.594-12.602 11.711-22.055 0.38281-29.664-24.492-62.195-53.293-69.086-7.6914-1.8359-15.266-1.2344-22.094 3.7305-6.6484 4.8242-13.523 9.3477-20.352 13.895-3.707 2.4844-7.3672 5.125-11.375 7.0195-6.8398 3.2383-13.836 6.2266-20.977 8.7461-2.4844 0.875-6.457 1.1641-8.2578-0.22656-18.359-14.195-39.672-20.785-62.148-23.125-22.246-2.3281-44.699-2.6992-67.008-4.4141-4.3789-0.33594-9.168-2.0898-12.758-4.6094-19.824-13.848-37.129-13.621-55.117 1.3789-1.9062 1.5859-4.1055 3.0977-5.3867 5.1367-5.1133 8.1602-13.223 11.137-21.73 14.352-29.363 11.102-55.645 26.629-73.512 53.688-1.4531 2.1953-4.6211 3.5898-7.2734 4.6094-23.914 9.2031-49.766 16.273-68.062 34.43-15.625 15.504-33.648 21.48-53.41 27.18-26.004 7.4883-49.609 20.281-65.652 42.926-6.2773 8.8438-13.105 13.105-23.52 15.312-30.707 6.5039-58.766 18.793-80.426 42.625-14.387 15.84-21.637 34.598-20.148 56.004 1.7266 24.828 10.031 47.484 24.348 68.004 2.1016 3 2.7617 7.7031 2.5195 11.508-0.86328 14.062-2.2305 28.105-3.8398 42.098-0.25391 2.2422-2.293 4.8828-4.2617 6.2539-42.348 29.363-84.707 58.754-127.33 87.707-11.102 7.5469-15.816 17.746-15.469 30.395 0.99609 36 32.988 76.801 67.703 86.746 11.34 3.2383 21.637 1.7383 31.738-5.375 42.156-29.664 84.66-58.801 127.03-88.164 2.7461-1.9062 5.0273-3.5898 8.3633-0.34766 7.8711 7.6445 17.941 10.094 28.512 11.473 2.543 0.33594 5.9141 2.5938 6.9844 4.8594 10.32 22.031 25.379 40.355 43.141 56.711 13.234 12.18 27.48 17.879 44.555 7.6914 0.27734-0.16797 0.88672 0.21484 0.67188 0.16797 2.0039 9.2539 3.168 18.445 6.0352 27.07 9.3945 28.273 27.492 49.273 54.695 61.895 13.5 6.2539 26.398 5.7461 38.27-4.4648 4.8828-4.2109 10.273-7.9688 15.863-11.148 2.1719-1.2461 6.3125-1.4883 8.3047-0.22656 18.445 11.723 19.934 11.594 33.707-5.5195 14.605-18.156 40.754-20.316 57.266-4.0078 7.0195 6.9375 12.59 15.359 18.625 23.258 4.8242 6.3125 9.0859 13.105 14.125 19.246 4.1758 5.0898 9.4688 6.6602 15.938 3.2656 34.922-18.324 64.777-42.637 88.859-73.992 2.0508-2.6523 4.8711-5.0273 7.8125-6.6602 32.305-17.914 59.281-41.832 81.637-71.184 2.4727-3.2656 5.7969-6.2383 9.3359-8.293 25.223-14.711 47.207-33.191 66.227-55.285 1.7266-1.9922 3.9844-3.7578 6.3477-4.9219 35.699-17.688 65.219-42.742 89.605-74.125 2.7617-3.5508 7.1172-5.8555 10.691-8.7969 10.117-8.3281 20.914-15.996 30.098-25.262 7.8359-7.8945 7.4648-16.094 0.64844-24.898-3.2539-4.1758-3.2656-7.4883-1.332-12.145 11.207-26.941 18.457-54.996 23.746-83.688 2.3047-12.445-2.8906-20.52-11.387-27.852-1.7656-1.5234-3.7578-2.8203-5.7109-4.2617 14.473-13.055 28.379-25.691 42.395-38.195 3.5273-3.1562 7.4414-5.8438 11.137-8.7969 5.6055-4.4766 8.2578-10.262 8.3516-17.496 0.32812-22.637-17.086-47.297-40.461-57.223zm-151.36 58.586c7.4297-7.8359 12.973-17.496 19.246-26.398 1.5117-2.1367 2.5781-4.5977 5.7617-6.8281 2.4727 10.477 5.2812 20.879 7.332 31.441 7.8594 40.453 10.895 81.254 7.4766 122.38-5.8086 69.816-24.516 135.24-67.57 191.9-8.6172 11.316-18.672 21.551-28.98 31.703 47.184-111.12 48.602-223.13 9.8516-337.39 19.992 10.414 31.906 9.0195 46.883-6.8047zm-80.34 8.6875c8.0039 7.4414 8.6758 14.566 2.375 27.516-65.82-60.91-138.38-109.05-224.41-135.57 4.2852 0.51562 8.6172 0.78125 12.852 1.5977 79.969 15.367 149.59 51.055 209.18 106.46zm11.676 28.906c0.38281-1.4297 0.66016-2.8906 1.1406-4.2969 0.22656-0.68359 0.76953-1.2461 2.4375-3.8164 4.3438 18.059 8.8906 34.008 11.941 50.23 6.1211 32.578 9.0859 65.531 7.6328 98.688-3.0859 70.68-18.984 137.68-58.789 197.45-11.902 17.855-25.715 34.105-42.707 47.711 25.812-55.02 38.258-112.78 39.59-173.11 1.3438-60.254-7.9336-118.67-31.008-176.86 4.2617 2.4961 6.6836 3.9102 9.0703 5.3281 15.168 8.9531 29.578 7.1523 42.035-5.3398 9.957-10.027 15.031-22.641 18.656-35.984zm-11.016-211.63c3.6836-1.9922 9.3359-2.0273 13.609-0.97266 24.926 6.1211 47.316 35.688 45.949 61.094-0.26562 4.8008-3.2539 10.609-6.8516 13.824-6.9844 6.2148-15.301 10.906-24.613 17.281-5.0273-34.117-21.805-59.051-54.852-73.559 9.8125-6.6016 17.891-12.867 26.758-17.668zm-24.863 27.672c25.777 12.047 39.828 32.965 43.895 60.66 1.2461 8.6055-1.9453 16.02-9.6719 21.18-13.883 9.2383-27.898 18.336-41.195 28.367-7.1172 5.3633-10.609-0.13281-15.445-2.7969-4.6797-2.5664-4.5859-5.8086-3.1797-10.586 6.5742-22.43 10.152-45.215 3.2031-68.184-2.3281-7.7266-6.5742-14.879-10.246-22.957 11.652-10.902 18.395-12.344 32.641-5.6836zm-195.31-31.078c-14.062 2.0898-27.719 4.1172-42.277 6.2891 11.809-14.652 29.113-17.188 42.277-6.2891zm-128.15 60.445c21.91-22.812 49.559-35.398 79.43-43.57 28.246-7.7266 57.133-10.586 86.375-8.1133 22.488 1.9062 45.012 3.625 67.344 6.6367 8.9023 1.1992 17.699 4.9805 25.969 8.7617 26.16 11.988 38.352 33.434 37.633 61.5-0.34766 14.398-3.9727 28.703-6.4219 45.07-92.953-57.238-190.88-76.211-297.46-61.129 3.0742-3.9609 4.8594-6.7812 7.1289-9.1562zm-89.016 54.992c42.887-29.832 89.844-43.848 142.59-39.719 87.66 6.8516 162.86 43.465 232.03 94.777 19.945 14.797 38.184 31.906 57.371 47.746 4.4141 3.6484 4.9688 6.9375 2.4609 12.121-13.094 26.965-32.027 30.961-53.605 10.367-6.7578-6.457-12.277-14.293-17.844-21.898-3.1562-4.2969-5.9414-5.6758-10.32-2.0273-4.332 3.6016-8.7969 7.0312-13.621 10.848-10.367-8.7344-21.059-18.312-32.352-27.121-49.656-38.676-105.93-62.074-167.82-72.695-40.68-6.9844-81.539-8.3164-122.62-5.6172-3.9727 0.26562-7.8945 0.97266-11.855 1.2969-3.9375 0.32422-7.8828 0.43359-14.137 0.74219 4.3086-3.9453 6.7578-6.7539 9.7227-8.8203zm350.12 162.1c-0.32422 4.4883-1.9062 8.8789-3.2656 14.914-48.516-87.469-126.85-130.64-217.33-157.92 7.0781 1.1641 14.23 2.0508 21.254 3.5273 74.27 15.66 137.98 50.305 191.44 104.53 11 11.203 8.793 22.613 7.9062 34.949zm-440.34-117.83c22.008-14.004 46.5-21.602 72.023-24.672 96.539-11.594 185.59 10.355 267.07 62.734 37.668 24.215 67.703 55.98 89.039 95.797 5.9766 11.148 3.1562 17.914-7.2852 28.668-8.6875 8.9531-18.852 10.645-28.379 4.7539-15.504-9.5898-25.789-23.988-34.008-39.781-2.9023-5.5664-5.4727-6.4805-10.164-2.8672-0.98438 0.75781-2.0156 1.4648-3.0234 2.207-13.512 9.8516-11.723 6.5898-8.0625 20.734 0.23828 0.88672 0.035156 1.8711 0.035156 3.9492-105.8-89.496-223.95-140.27-366.8-122.91 8.3672-13.238 18.41-21.527 29.559-28.609zm360.02 210.98c-4.668-22.055-10.105-43.969-15.371-65.902-1.2852-5.3281-0.85156-9.3125 6.3594-11.113 1.9336 6.9492 4.3438 13.871 5.7734 20.988 8.1133 40.598 17.34 81.035 23.605 121.92 7.6562 50.16 6.8516 100.61-2.5312 150.68-0.26563 1.3672-1.1055 2.6406-1.7031 4.0078-7.0938-2.7617-6.9258-8.0039-6.4062-14.09 2.1836-25.98 5.5078-51.973 5.543-77.977 0.066407-43.32-6.3047-86.148-15.27-128.52zm-12.805 7.4414c1.332-1.6562 1.9922-3.8516 2.9648-5.7969 0.66016 0.085938 1.3203 0.15625 1.9688 0.22656 13.703 67.836 21.492 135.95 9.2383 206.29-33.949-22.754-72.145-39.648-83.113-83.27-2.7734-11.09-2.1367-23.016-3.2656-34.535-1.4023-14.27-2.7461-28.57-4.6562-42.77-1.8477-13.703-4.4141-27.301-5.4609-41.555 1.1523 1.332 2.3633 2.6523 3.4453 4.043 3.793 4.9336 7.2109 10.176 11.34 14.809 14.762 16.535 31.273 17.125 48.527 4.9805 7.7422-5.4609 12.855-14.746 19.012-22.426zm-184.34-159.43c0.39453-0.66016 0.78125-1.3203 1.1875-2.0039 12.73 5.2695 25.656 10.094 38.16 15.852 47.34 21.805 90.059 50.617 129.3 84.949 14.316 12.527 16.957 27.023 12.887 44.125-1.0195 4.2969-2.7109 8.4102-4.8711 15.035-43.07-72.684-101.46-124.75-176.66-157.96zm-278.36 9.8047c21.949-16.668 47.363-25.691 74.16-29.16 126.59-16.355 234.36 22.32 323.46 113.27 19.055 19.453 34.598 41.734 48.672 65.074 3.2773 5.4492 2.5781 8.8438-1.957 12.672-12.66 10.691-30.527 17.34-44.543-2.1602-9.4922-13.199-16.766-28.043-24.336-42.504-3.9844-7.5859-4.2734-8.2305-11.004-3.3359-4.4297 3.2148-8.8906 6.3711-13.934 9.9844-3.625-2.9648-7.1875-5.9531-10.836-8.8438-51.961-41.352-109.54-71.387-174.96-84.48-20.594-4.1289-41.855-5.1484-62.891-6.6016-15.324-1.043-28.141 5.2305-37.777 17.398-3.8633 4.8711-7.5 9.9375-11.281 14.867-5.7227 7.4531-7.3672 7.6914-15.215 2.1719-2.4492-1.7148-4.7539-3.625-7.0078-5.5781-15.086-13.031-30.324-25.812-51.445-30.035 5.1016-10.113 12.852-16.629 20.895-22.738zm169.21 72.121c2.2578 0.37109 4.8477 0.58984 7.332 1.2227 43.766 11.113 80.449 34.859 113.75 64.402 23.93 21.227 44.797 45.254 63.684 71.062 3.8984 5.3164 4.8945 9.1562-1.2617 13.246-3.2891 2.1836-6.2539 4.9922-8.9297 7.9219-12.289 13.414-37.934 11.746-49.414-0.44531-6.9258-7.3438-12.672-15.875-18.551-24.145-4.1641-5.8672-7.4766-12.336-11.578-18.254-3.3711-4.8711-7.7266-8.7461-14.387-6.7812-6.707 1.9688-10.223 6.6367-10.621 13.656-0.046875 0.97266-0.38281 1.9062-0.83984 4.0547-7.7031-7.332-14.09-14.34-21.395-20.184-10.871-8.6992-21.996-17.195-33.77-24.574-9.9258-6.2266-13.57-14.629-13.164-25.559 0.27734-7.4648 1.2461-14.914 1.0781-22.344-0.22656-10.82-1.2109-21.617-1.9297-33.281zm158.4 91.605c-37.512-41.508-80.16-76.309-134.34-93.504-19.332-6.1328-37.738-12.277-52.105-27.266-3-3.1211-7.043-5.2305-10.141-9.6016 8.0742 1.043 16.246 1.6914 24.227 3.2148 73.32 14.09 136.96 47.688 192.97 96.383 2.4492 2.1367 4.7891 5.3984 5.375 8.4844 4.0195 21.191 7.5586 42.457 11.207 63.707 0.12109 0.68359-0.27734 1.4297-0.57422 2.7461-12.535-15.184-23.996-30.207-36.621-44.164zm32.582-33c-0.37109-2.293 2.7969-5.1602 4.332-7.7539 0.82812 0.25391 1.6562 0.51562 2.4844 0.78125 4.2852 26.988 8.5664 53.965 12.852 80.941-0.74219 0.74219-1.5 1.4883-2.2578 2.2422-1.7148-1.7148-4.5977-3.2148-4.9688-5.1836-4.4492-23.613-8.6758-47.266-12.441-71.027zm-483.88 141.39c47.09-32.594 94.199-65.137 141.25-97.754 6.7695-4.7031 13.824-6.2148 21.863-3.793 30.07 9.0977 48.492 29.832 59.039 58.559 1.8242 4.9922-2.125 6.5742-5.1133 8.5938-28.633 19.414-57.301 38.785-85.945 58.199-19.992 13.547-39.938 27.145-59.93 40.691-2.6523 1.7891-5.3867 3.4453-8.7227 5.5781-12.348-32.762-34.141-55.055-68.723-65.258 2.5781-1.9844 4.3672-3.4844 6.2773-4.8164zm45.648 116.71c-2.7227 1.0078-5.7852 1.1289-10.262 1.9453-4.6562-1.5352-10.871-2.6758-16.234-5.4844-29.375-15.434-47.531-39.227-51.949-72.551-2.6523-20.016 10.98-32.137 30.121-25.945 28.078 9.0859 46.441 28.703 56.328 56.27 0.61328 1.7148-0.39453 4.6562-1.6445 6.2539-5.7109 7.3086-6.2773 15.707-1.1055 23.305 5.4258 8 3.9844 12.773-5.2539 16.207zm22.199-22.059c-3.0234 2.0625-6.3008 7.0312-10.453 1.043-3.5508-5.1484-2.6055-10.738 2.5547-14.219 51.996-35.125 103.98-70.234 155.99-105.31 2.6055-1.7656 5.3281-3.3594 8.6641-5.4492 2.7617 10.488 0.49219 16.777-8.0391 22.512-49.801 33.484-99.145 67.625-148.71 101.43zm134.36-71.613c-0.61328-0.25391-1.0078-1.0078-2.1367-2.207 5.1719-3.6602 10.129-7.2227 15.168-10.668 17.328-11.867 22.715-23.82 17.914-44.039-7.4414-31.344-24.742-55.586-53.941-70.43-16.246-8.2578-32.09-9.7305-47.195 3.0703-5.0156 4.2461-10.871 7.5234-17.242 11.855-2.9883-24.625 7.4648-40.273 28.391-42.359 7.332-0.74219 15.348 1.1875 22.5 3.5273 46.812 15.359 87.203 70.668 86.723 118.05-0.28516 28.969-23.539 44.355-50.18 33.195zm29.207-111.55c-20.27-27.348-46.934-46.105-82.355-52.078 21.551-19.152 33.098-26.125 62.074-13.309 45.371 20.062 71.953 56.207 79.512 104.58 4.5352 29.062-2.6523 37.754-31.309 54.035 4.5039-35.434-7.6875-65.938-27.922-93.227zm92.27 176.57c-4.2227 19.008-25.246 26.137-40.656 14.363-19.273-14.711-34.199-33.289-45.098-54.949-2.1836-4.3203-2.9766-9.3359-4.2461-13.5 14.363-10.211 27.66-20.746 41.988-29.605 20.398-12.59 27.023-31.262 23.398-53.137-8.9023-53.664-37.789-92.82-88.535-114.25-19.598-8.2695-38.52-7.2617-55.98 7.0664-10.871 8.9414-22.934 16.414-33.828 24.086-2.8672-5.0039-5.0156-9.3008-7.6562-13.262-16.164-24.312-26.363-50.438-21.254-80.051 3.4805-20.16 5.1953-19.453 21.227-12.238 11.797 5.3164 21.996 14.195 32.797 21.648 5.3047 3.6602 10.031 8.2578 15.574 11.484 7.5977 4.4414 12.613 3.4062 18.422-3.2539 4.4023-5.0391 8.1367-10.691 12.348-15.926 13.801-17.207 27.781-21.48 47.16-11.426 13.078 6.7812 25.105 16.043 36.504 25.535 8.8789 7.3906 10.633 18.91 10.895 30 0.33594 14.184-0.085937 28.367-0.22656 42.562-0.085938 9.5625 4.5703 16.176 12.086 21.781 16.32 12.203 33.191 23.891 48.121 37.668 22.754 20.977 34.68 48.109 38.594 78.742 1.4297 11.113-0.60156 14.762-11.953 15.852-12.758 1.2227-25.715 1.0312-38.543 0.58984-6.4805-0.23828-10.078 2.832-10.367 8.0742-0.55078 10.066 0.52734 20.195 0.50391 30.289-0.0625 10.691 0.99219 21.672-1.2734 31.859zm86.746-56.004c23.305 4.5234 40.621 18.816 54.926 37.117 0.17969 0.22656-0.13281 0.85156-0.49219 2.7344-5.4492-5.7227-9.707-11.734-15.359-15.77-8.6055-6.1562-17.809-11.734-27.422-16.129-11.473-5.2422-22.789-3.2891-32.902 4.5352-2.2305 1.7266-4.668 3.2031-7.8125 5.3281 2.9766-13.438 14.23-20.695 29.062-17.816zm-1.2227-10.055c20.363-20.039 29.797-28.523 57.562-13.934 37.934 19.945 57.961 52.512 60.66 95.328 0.74219 11.832-3.6133 21.84-13.738 28.945-5.2305 3.6836-10.078 7.8711-15.805 12.383-1.7266-62.137-30.336-103.36-88.68-122.72zm-60.254 19.27c-0.79297-1.7656-0.79297-4.7539 0.22656-6.1914 0.74219-1.043 3.8516-0.86328 5.7734-0.51562 6.5156 1.1758 12.996 2.6875 20.051 4.1875-1.8359 6.2539-3.6367 12.359-5.7461 19.586-8.5781-3.8164-16.309-8.1875-20.305-17.066zm7.6445 26.234c-4.5977 3.2539-12.926 9.1211-22.02 15.516-1.2227-19.535-2.3516-37.586-3.5391-56.387 4.7891 0.38281 7.6562 0.61328 8.5195 0.69531 1.4766 7.8359 1.6445 15.254 4.3789 21.527 2.9297 6.707 8.2695 12.383 12.66 18.648zm10.418-40.25c5.4492-1.2617 10.883-2.543 16.332-3.8047 0.17969 0.68359 0.35938 1.3438 0.53906 2.0156-4.7148 3.9141-10.332 4.5977-16.871 1.7891zm29.629 168.77c-5.9141 0.25391-12.59-1.2461-17.855-3.9961-30.695-16.02-48.301-41.652-52.055-75.996-2.2812-20.82 12.793-32.387 32.258-24.863 29.953 11.566 47.148 34.559 54.828 65.148 1.1406 4.5469 1.4414 9.2891 2.125 13.945-0.47656 15.742-6.8359 25.219-19.301 25.762zm27.672-15.711c-1.7383-49.453-24.098-82.656-69.59-99.949-0.011718 0.12109-0.13281-0.63672 0.13281-0.81641 14.93-10.727 29.605-21.84 44.977-31.922 7.7891-5.1016 16.559-2.125 24.312 1.5469 27.504 12.984 44.062 34.895 50.93 64.246 1.332 5.7344 2.3398 12.047 1.3086 17.688-1.1055 6.0234-3.3125 13.379-7.668 16.957-13.805 11.289-28.816 21.105-44.402 32.25zm20.184-3.5156c6.5391-8.9883 14.41-0.625 21.742-3.6016-5.0273 14.055-10.465 14.773-21.742 3.6016zm42.383-28.367c-3.8867 11.137-14.16 17.711-25.586 14.594 1.332-0.63672 2.7227-1.1992 3.9961-1.9219 20.902-11.914 22.477-30.637 17.23-51.121-2.543-9.9102-6.8047-19.391-9.8633-29.258 7.2734 10.512 11.652 22.285 14.496 34.691 2.5234 10.996 3.5312 22.098-0.27344 33.016zm84.926 65.785c-2.3516-2.6289-4.9688-5.0898-7.043-7.9219-7.3438-10.043-14.113-20.531-21.84-30.254-10.43-13.078-23.531-21.406-41.27-19.43-0.88672 0.10938-1.8359-0.25391-4.4297-0.68359 7.3086-5.9023 13.246-11.461 19.906-15.961 16.055-10.883 20.578-26.746 18.18-44.438-5.5547-40.906-25.754-72.719-62.074-93.277-6.6133-3.7305-14.039-6.6836-21.469-8.1367-12.156-2.3633-23.629-0.15625-33.348 8.7344-6.3359 5.7852-13.488 10.703-21.637 17.062 3.8867-24.289-6.1094-43.391-14.52-62.93-3.4336-7.9688-6.6484-16.055-9.707-24.18-0.9375-2.4961-1.7031-5.4102-1.332-7.957 0.40625-2.9023 2.1719-5.6172 3.3359-8.3984 2.5781 1.4023 6.1094 2.1836 7.5859 4.3555 6.2773 9.2539 11.699 19.094 17.902 28.402 7.7656 11.641 17.426 21.254 31.691 24.492 15.121 3.3945 29.062 1.5586 40.969-9.5742 6.5391-6.1211 13.332-12.023 20.508-17.352 2.8555-2.1367 7.043-2.4961 10.621-3.6602 0.91016 3.457 2.7852 6.9844 2.5664 10.367-0.89844 14.195-1.6445 28.273 2.5078 42.145 7.2344 24.133 20.148 44.305 41.137 58.754 11.891 8.1836 24.191 15.793 35.93 24.168 7.2734 5.1836 14.398 10.789 20.555 17.195 3.5625 3.7188 5.0508 9.3945 7.4766 14.207-0.9375 0.64844-1.8477 1.3086-2.7852 1.9688-4.1406-1.5586-8.2578-3.1562-12.434-4.6562-4.8945-1.7539-9.7422-3.7422-14.773-5.0508-13.332-3.457-20.965 0.83984-25.199 13.906-5.543 17.172-1.4883 33.996 2.3867 50.676 2.8555 12.312 6.7422 24.383 10.117 36.602 0.89844 3.2539 1.5469 6.5508 2.293 9.8281-0.60938 0.32422-1.2109 0.66016-1.8086 0.99609zm6.25-14.258c-4.3906-18.371-9.1328-35.258-12.254-52.441-1.5703-8.5938-1.1172-17.844 0.14453-26.555 1.5117-10.512 6.875-13.309 17.113-10.246 7.1172 2.1484 13.98 5.0625 20.988 7.6211 12.047 4.3906 15.254 2.0273 17.016-10.633 2.1602-15.469 6.0586-30.742 7.5586-46.246 2.0742-21.504 3.9727-43.176 3.5742-64.738-1.0781-59.363-11.832-117.45-26.016-174.95-0.51563-2.0898-0.64844-4.2617-1.1289-7.6211 5.9766 5.5664 10.727 10.633 16.117 14.891 16.598 13.129 34.262 11.207 47.93-5.0742 10.055-11.965 14.902-26.195 17.578-41.352 0.44531-2.5547 1.2109-5.0742 1.8242-7.6094 0.79297-0.085937 1.5977-0.15625 2.3867-0.23828 4.8477 18.875 10.164 37.645 14.438 56.664 7.957 35.449 9.457 71.566 7.3203 107.63-4.6445 77.797-26.797 149.69-78.012 210.06-14.363 16.922-32.426 30.73-48.863 45.875-1.7148 1.5586-3.9453 2.5664-7.7148 4.9648zm13.559 5.1016c-2.7344 1.6328-5.5547 3.1094-8.3398 4.6562-0.33594-0.48047-0.68359-0.94922-1.0312-1.4297 7.7656-6.0703 15.742-11.879 23.27-18.238 54.059-45.672 86.305-104.52 103.49-172.31 11.652-45.961 14.473-92.641 10.836-139.84-3.8984-50.531-15.852-98.891-37.98-144.57-2.1016-4.3203-1.9062-7.0195 4.7656-8.7344 5.7109 12.852 12.109 25.691 17.219 39 15.059 39.227 22.945 79.945 25.789 121.88 4.4141 65.258-3.875 128.5-28.859 189.07-22.621 54.816-57.52 99.766-109.16 130.51zm111.95-92.016c-2.0625 1.5859-4.2734 2.9883-7.332 3.4805 0.80469-1.0195 1.4883-2.207 2.4609-3.0234 44.676-37.488 73.02-85.598 90.602-140.45 17.102-53.426 22.633-108.27 18.805-164.21-2.7734-40.645-10.32-80.219-24.289-118.5-2.8086-7.6914-6-15.266-9.5156-22.656-2.125-4.5-2.1719-7.5234 5.6406-9.7812 7.0938 19.262 14.93 38.016 20.902 57.359 12.898 41.594 18.422 84.492 17.902 127.93-0.83984 69.648-14.844 136.19-50.855 196.84-16.848 28.332-38.102 52.871-64.32 73.008zm90.719-80.34c-1.9805 1.6094-4.1289 3.0234-7.2852 3.1914 1.3789-1.5234 2.6523-3.168 4.1758-4.5234 45.949-41.242 73.465-93.371 89.594-152.1 11.879-43.234 16.465-87.434 14.844-132.14-1.1992-32.594-5.5664-64.836-13.727-96.504-0.68359-2.6289-1.2734-5.2695-1.9688-8.125 7.9219-2.7852 9.4688 1.8594 10.754 7.0664 7.8242 31.414 12.527 63.18 13.883 95.605 2.0156 48.145-3.1445 95.305-16.934 141.37-17.184 57.484-46.125 107.73-93.336 146.16zm151.73-129.31c5.8203-10.836 11.16-20.746 16.812-31.273 8.3984 8.7148 0.73047 22.957-16.812 31.273zm38.844-130.2c-12.719 69.637-39.156 132.46-92.172 181.54-10.355 9.5898-22.309 17.473-33.613 26.039-1.8945 1.4531-4.1992 2.4102-7.0078 3.2266 51.156-79.094 65.879-166.5 61.754-259.08 2.4961 2.6758 4.8828 5.4375 7.4766 8.0039 5.8555 5.8555 12.742 8.8086 21.254 9.3008 8.8438 0.50391 17.891 1.668 26.305 4.3086 13.484 4.1992 18.5 12.957 16.004 26.664zm3.7773-54.348c-1.1055 1.5703-3.3477 2.2812-4.5586 3.8047-12.254 15.422-28.738 14.051-45.168 10.777-4.9336-0.98438-10.211-4.3906-13.609-8.2188-12.254-13.789-18.035-30.637-20.172-48.742-0.23828-2.0898 1.5977-5.1367 3.3828-6.6367 7.6211-6.3828 15.336-12.742 23.555-18.289 3.4453-2.3281 8.3633-3.9961 12.395-3.6133 24.324 2.207 51.203 32.52 52.547 57.781-2.7539 4.3984-5.3828 8.8984-8.3711 13.137zm37.105-33.469c-6.3242 5.8906-13.488 10.883-21.383 17.062-6.3242-29.195-21.949-49.922-50.891-61.246 8.0898-6.2148 14.426-11.902 21.59-16.223 3.1562-1.9062 8.1602-2.0508 12-1.2969 23.027 4.5352 43.883 29.891 42.73 51.84-0.19531 3.4062-1.6719 7.6406-4.0469 9.8633z"/>
 <path d="m472.21 868.91c-10.465-3.9609-19.031 2.2305-17.652 13.262 1.4883 11.809 7.5703 20.953 18.539 26.137 10.129 4.8008 18.07-0.35938 18.059-11.398-0.007812-11.703-8.3125-23.992-18.945-28zm7.0078 32.848c-0.83984-0.058594-1.7773-0.30078-2.7852-0.67188-6.4805-2.3398-13.922-13.105-13.871-19.906 0.023438-4.5234 1.7773-6.4922 6.5273-4.7539 0.92578 0.33594 1.8359 0.79297 2.7227 1.3203 3.5625 2.1836 6.8281 5.832 8.9414 9.8398 1.5859 3.0117 2.5195 6.2266 2.4727 9.1445 0.10938 3.9336-1.4883 5.2305-4.0078 5.0273z"/>
 <path d="m112.11 793.36c-10.633-4.3086-18.805 1.2227-17.914 12.648 0.98438 12.406 7.7266 21.422 18.793 26.699 10.008 4.7539 17.809-0.74219 17.734-11.844-0.085938-11.293-8.1758-23.242-18.613-27.504zm3.2852 31.598c-7.4414-3.9727-12.047-10.262-13.105-18.707-0.69531-5.5664 1.8945-7.3555 7.0312-5.3867 6.7188 2.5547 13.176 11.965 13.246 19.297 0.054688 5.8633-2.1406 7.4844-7.1719 4.7969z"/>
</svg>
