<?xml version="1.0" encoding="UTF-8"?>
<svg width="1200pt" height="1200pt" version="1.1" viewBox="0 0 1200 1200" xmlns="http://www.w3.org/2000/svg">
 <path d="m506.3 1170.6v21.531c0 4.3125 3.5117 7.8242 7.8242 7.8242h77.48c4.3125 0 7.8242-3.5117 7.8242-7.8242v-21.531c-15.406 1.2305-30.934 1.8867-46.562 1.8867-15.633 0-31.16-0.66016-46.566-1.8867z"/>
 <path d="m989.29 970.58c-10.027 11.766-20.539 23.207-31.59 34.262-11.051 11.051-22.492 21.566-34.262 31.59l15.227 15.223c3.0508 3.0508 8.0156 3.0508 11.066 0l54.785-54.785c3.0508-3.0508 3.0508-8.0156 0-11.066z"/>
 <path d="m543.02 733.92v-124.08h-124.08c4.8242 66.23 57.852 119.26 124.08 124.08z"/>
 <path d="m599.43 27.469v-19.645c0-4.3125-3.5117-7.8242-7.8242-7.8242h-77.48c-4.3125 0-7.8242 3.5117-7.8242 7.8242v21.531c15.406-1.2305 30.934-1.8867 46.562-1.8867z"/>
 <path d="m116.43 970.58-15.223 15.223c-3.0508 3.0508-3.0508 8.0156 0 11.066l54.785 54.785c3.0508 3.0508 8.0156 3.0508 11.066 0l15.223-15.223c-11.766-10.027-23.207-20.539-34.262-31.59-11.055-11.055-21.566-22.492-31.59-34.262z"/>
 <path d="m418.94 590.16h124.08v-124.08c-66.23 4.8203-119.26 57.852-124.08 124.08z"/>
 <path d="m116.43 229.42c10.027-11.766 20.539-23.207 31.59-34.262s22.492-21.566 34.262-31.59l-15.223-15.223c-3.0508-3.0508-8.0156-3.0508-11.066 0l-54.789 54.785c-3.0508 3.0508-3.0508 8.0156 0 11.066z"/>
 <path d="m780.16 355.66c65.531 61.004 106.59 147.96 106.59 244.34 0 184.11-149.79 333.89-333.89 333.89-80.949 0-155.25-28.965-213.12-77.062 68.98 74.191 167.37 120.69 276.42 120.69 208.16 0 377.52-169.36 377.52-377.52 0-13.953-0.80859-27.965-2.332-41.797-30.227-0.007813-54.816-24.602-54.816-54.832 0-30.234 24.598-54.832 54.832-54.832 30.234 0 54.828 24.598 54.828 54.832 0 23.414-14.758 43.438-35.453 51.285 1.7031 15 2.6172 30.207 2.6172 45.344 0 219.01-178.18 397.19-397.19 397.19s-397.19-178.18-397.19-397.19c0-184.11 149.79-333.89 333.89-333.89 76.836 0 147.68 26.102 204.16 69.887h333.75l-0.003906-288.85h-537.92c-304.85 0-552.86 248.01-552.86 552.86s248.01 552.86 552.86 552.86c304.85 0 552.86-248.01 552.86-552.86 0-85.871-19.156-168.03-56.844-244.34z"/>
 <path d="m991.36 468.21c-19.387 0-35.16 15.773-35.16 35.16 0 19.387 15.773 35.16 35.16 35.16s35.156-15.773 35.156-35.16c0-19.387-15.77-35.16-35.156-35.16z"/>
 <path d="m1182.9 20.227h-55.402c-9.4141 0-17.074 7.6602-17.074 17.074v308.53c0 9.4141 7.6602 17.074 17.074 17.074h55.402c9.4141 0 17.074-7.6602 17.074-17.074v-308.52c0-9.418-7.6602-17.078-17.074-17.078z"/>
 <path d="m238.64 600c0 2.707 0.046875 5.4062 0.10156 8.0977 4.3125 169.54 143.56 306.12 314.12 306.12 173.26 0 314.22-140.96 314.22-314.22 0.003906-173.26-140.96-314.22-314.22-314.22s-314.22 140.96-314.22 314.22zm548.16 0c0 129-104.95 233.95-233.95 233.95s-233.95-104.95-233.95-233.95 104.95-233.95 233.95-233.95c129 0 233.95 104.95 233.95 233.95z"/>
 <path d="m686.78 609.84h-124.08v124.08c66.23-4.8203 119.26-57.852 124.08-124.08z"/>
 <path d="m338.59 600c0 118.15 96.121 214.27 214.27 214.27s214.27-96.121 214.27-214.27-96.121-214.27-214.27-214.27c-118.15 0-214.27 96.121-214.27 214.27zm368.26 0c0 84.91-69.078 153.99-153.98 153.99-84.91 0-153.99-69.078-153.99-153.99s69.078-153.99 153.99-153.99c84.906 0 153.98 69.078 153.98 153.99z"/>
 <path d="m562.7 466.08v124.08h124.08c-4.8203-66.23-57.848-119.26-124.08-124.08z"/>
</svg>
