<?xml version="1.0" encoding="UTF-8"?>
<svg width="1200pt" height="1200pt" version="1.1" viewBox="0 0 1200 1200" xmlns="http://www.w3.org/2000/svg">
 <path d="m693.75 628.08c0.054688 7.1367-0.76172 14.254-2.4375 21.188-6.5391 27.617-25.223 50.789-50.828 63.035-25.602 12.242-55.367 12.242-80.969 0-25.605-12.246-44.289-35.418-50.828-63.035-1.6758-6.9336-2.4922-14.051-2.4375-21.188-0.019531-20.109 6.4453-39.691 18.438-55.836 11.988-16.145 28.867-27.996 48.125-33.789 17.707-5.5 36.668-5.5 54.375 0 19.258 5.793 36.137 17.645 48.125 33.789 11.992 16.145 18.457 35.727 18.438 55.836z"/>
 <path d="m357.16 245.66c-5.4961 0.007813-10.723-2.3984-14.289-6.582-3.5703-4.1836-5.1211-9.7227-4.25-15.148 0.875-5.4297 4.0898-10.199 8.7891-13.051 15.914-9.6602 32.375-18.391 49.293-26.156 6.0859-2.793 13.203-2.1289 18.664 1.7461 5.4609 3.875 8.4414 10.371 7.8203 17.039-0.625 6.668-4.7617 12.496-10.848 15.289-15.609 7.1641-30.789 15.227-45.465 24.145-2.9297 1.7773-6.2891 2.7188-9.7148 2.7188z"/>
 <path d="m391.91 363.31c-5.3047 0.007812-10.363-2.2305-13.926-6.1641-3.5586-3.9336-5.2891-9.1875-4.7578-14.465 0.53516-5.2773 3.2773-10.086 7.5508-13.227 10.574-7.7695 21.551-14.977 32.887-21.59 5.7852-3.375 12.934-3.4062 18.75-0.082032 5.8164 3.3242 9.418 9.4961 9.4453 16.195 0.03125 6.6992-3.5156 12.906-9.3008 16.281-10.188 5.9414-20.051 12.422-29.551 19.406-3.2188 2.3672-7.1055 3.6445-11.098 3.6445z"/>
 <path d="m374.02 1057.7c-3.1445 0-6.2422-0.79297-9-2.3047-16.32-8.957-32.109-18.84-47.297-29.609-4.0547-2.875-6.8008-7.2461-7.6328-12.148-0.83203-4.9023 0.31641-9.9336 3.1953-13.988 2.875-4.0547 7.2461-6.8008 12.148-7.6328 4.9023-0.83594 9.9336 0.3125 13.988 3.1914 14.012 9.9297 28.578 19.043 43.633 27.301 4.9062 2.6875 8.3555 7.4258 9.4062 12.922 1.0469 5.4922-0.41016 11.168-3.9766 15.477-3.5664 4.3086-8.8711 6.8008-14.465 6.793z"/>
 <path d="m458.54 968.76c-2.5898-0.003907-5.1484-0.54297-7.5156-1.5859-12.012-5.2695-23.738-11.168-35.129-17.668-5.8086-3.3281-9.4023-9.4961-9.4336-16.188-0.03125-6.6914 3.5078-12.891 9.2852-16.27 5.7734-3.3789 12.914-3.4258 18.73-0.11719 10.242 5.8516 20.789 11.156 31.598 15.895 5.2969 2.3203 9.2266 6.9609 10.648 12.57 1.4219 5.6094 0.17188 11.562-3.3828 16.125-3.5508 4.5664-9.0156 7.2383-14.801 7.2383z"/>
 <path d="m1066.9 690.63c-0.57812 0-1.1641-0.027343-1.7578-0.082031-4.9492-0.46094-9.5156-2.8711-12.691-6.6992-3.1719-3.8281-4.6992-8.7578-4.2383-13.707 1.5898-17.105 2.1992-34.289 1.8242-51.465-0.10547-4.9688 1.7656-9.7812 5.207-13.371 3.4414-3.5938 8.168-5.6719 13.141-5.7812 4.9336 0.019531 9.6758 1.9336 13.242 5.3477 3.5625 3.4141 5.6797 8.0703 5.9102 13 0.39453 18.605-0.26562 37.219-1.9883 55.746-0.43359 4.6484-2.582 8.9688-6.0312 12.113-3.4492 3.1484-7.9492 4.8945-12.617 4.8984z"/>
 <path d="m951.7 645.59c-4.957 0-9.7148-1.9648-13.227-5.4648-3.5156-3.4961-5.5-8.2461-5.5234-13.203-0.054688-11.797-0.73438-23.578-2.0312-35.305-0.55859-4.9453 0.875-9.9102 3.9805-13.797 3.1055-3.8906 7.6328-6.3828 12.578-6.9336 4.9453-0.54688 9.9062 0.89062 13.793 4.0039 3.8828 3.1133 6.3672 7.6406 6.9102 12.59 1.4492 13.043 2.207 26.152 2.2695 39.277 0.023437 4.9727-1.9336 9.75-5.4336 13.281s-8.2617 5.5273-13.234 5.5508z"/>
 <path d="m473.44 662.77c-26.332 10.215-52.535 20.746-78.613 31.598-16.164-50.07-13.504-104.32 7.4844-152.57 2.6836-6.1406 1.8867-13.246-2.0898-18.637s-10.527-8.2539-17.184-7.5078-12.41 4.9883-15.094 11.129c-24.855 57.176-27.824 121.49-8.3398 180.71 0.25 0.55078 0.52734 1.082 0.83203 1.6016-24.609 10.523-49.098 21.312-73.461 32.371-19.781-54.809-24.863-113.84-14.734-171.23 10.125-57.387 35.109-111.11 72.457-155.84 4.2461-5.1406 5.4453-12.148 3.1445-18.41-2.3008-6.2578-7.7539-10.824-14.316-11.992-6.5664-1.168-13.258 1.2422-17.574 6.3242-41.715 49.949-69.57 109.98-80.766 174.09-11.195 64.109-5.3438 130.03 16.969 191.16 0.20703 0.56641 0.59375 0.99219 0.84766 1.5273-24.23 11.328-48.328 22.941-72.285 34.84l0.003906 0.003906c-33.359-85.914-39.633-179.98-17.977-269.56 21.66-89.578 70.211-170.39 139.13-231.57 5.0195-4.4375 7.2891-11.215 5.9531-17.781-1.3359-6.5625-6.0703-11.918-12.426-14.043-6.3516-2.125-13.355-0.70312-18.371 3.7383-74.863 66.445-127.54 154.26-150.92 251.59-23.379 97.328-16.336 199.49 20.18 292.69 0.34375 0.69141 0.73438 1.3555 1.1641 1.9922-17.809 12.254-28.324 32.594-28.02 54.207 0.039062 12.852 3.4648 25.461 9.9375 36.562 12.266 21.934 35.25 35.711 60.375 36.188 12.055-0.023437 23.84-3.5391 33.938-10.125 97.5-63.75 191.81-132.25 282.94-205.5-15.844-16-27.277-35.832-33.188-57.562z"/>
 <path d="m423.09 493.04c5.4258 0.007813 10.586-2.3398 14.145-6.4375l3.4883-3.9102c5.7812-6.3281 11.93-12.312 18.418-17.914 5.0625-4.3867 7.4023-11.137 6.1406-17.715-1.2656-6.5742-5.9375-11.98-12.266-14.176-6.3242-2.1953-13.344-0.85156-18.41 3.5273-7.5938 6.5664-14.797 13.574-21.57 20.984l-4.0742 4.5781v-0.003906c-3.168 3.6367-4.8086 8.3555-4.5898 13.172s2.2891 9.3633 5.7734 12.695c3.4844 3.3359 8.1211 5.1953 12.945 5.1992z"/>
 <path d="m1046.1 805.08c-104.06-52.688-210.56-100.12-319.5-142.31-5.9102 21.73-17.344 41.562-33.188 57.562 22 17.691 44.215 35.109 66.641 52.254-35.281 39.027-83.59 63.84-135.86 69.789-6.4023 0.72656-11.984 4.6875-14.781 10.492-2.7969 5.8008-2.4219 12.637 1 18.098 3.4219 5.457 9.4062 8.7812 15.852 8.793 0.70703 0 1.418-0.039062 2.1211-0.12109 61.941-7.0625 119.12-36.648 160.67-83.129 0.32812-0.5 0.63281-1.0195 0.90625-1.5547 21.441 16.062 43.051 31.887 64.824 47.469h0.003906c-37.574 44.539-86.156 78.457-140.92 98.379-54.758 19.918-113.78 25.148-171.18 15.164-6.5938-1.1445-13.297 1.3086-17.594 6.4375-4.293 5.1328-5.5273 12.164-3.2383 18.453 2.293 6.2852 7.7578 10.875 14.348 12.043 64.117 11.211 130.05 5.3398 191.18-17.02 61.125-22.363 115.29-60.422 157.03-110.36 0.30469-0.49609 0.58203-1.0117 0.83594-1.5391 21.949 15.34 44.07 30.418 66.363 45.234h-0.003906c-57.73 71.828-136.05 124.28-224.45 150.31-88.398 26.027-182.65 24.395-270.09-4.6836-6.3516-2.1289-13.355-0.70312-18.375 3.7344-5.0156 4.4375-7.2852 11.215-5.9492 17.781 1.332 6.5625 6.0703 11.918 12.422 14.043 94.969 31.656 197.37 33.391 293.36 4.9727 95.988-28.422 180.94-85.629 243.36-163.89 0.39062-0.65625 0.73828-1.3398 1.043-2.0391 8.4961 4.2461 17.859 6.4766 27.359 6.5117 25.125-0.47656 48.109-14.254 60.375-36.188 6.4727-11.102 9.8984-23.711 9.9375-36.562 0.21875-11.938-2.8906-23.699-8.9844-33.969-6.0938-10.266-14.93-18.633-25.516-24.156z"/>
 <path d="m516.72 867.07c9.5078 3.3086 19.203 6.0508 29.031 8.2109l5.8945 1.2266h0.003906c6.5703 1.3008 13.336-1 17.75-6.0391 4.4141-5.0391 5.8008-12.051 3.6445-18.395-2.1602-6.3398-7.5352-11.051-14.109-12.352l-5.1719-1.0703c-8.3633-1.8438-16.613-4.1797-24.699-6.9961-6.3281-2.2031-13.348-0.86719-18.422 3.5117-5.0703 4.375-7.4219 11.125-6.168 17.707 1.25 6.5781 5.9219 11.992 12.246 14.195z"/>
 <path d="m1077.9 530.99c-20.113-98.059-69.828-187.58-142.43-256.5-72.602-68.91-164.6-113.89-263.57-128.87-0.78906-0.011718-1.5742 0.03125-2.3594 0.125-2.9531-23.227-17.312-43.441-38.27-53.883-20.953-10.441-45.738-9.7266-66.059 1.9023-20.324 11.625-33.496 32.637-35.109 55.992 0 1.125 0.1875 2.25 0.1875 3.375 6.5625 116.44 18.75 232.69 36.75 348 21.625-5.75 44.375-5.75 66 0 4.3594-27.945 8.3711-55.941 12.031-83.992 51.488 11.039 97.18 40.48 128.51 82.805 3.9727 5.3906 10.52 8.2539 17.176 7.5078 6.6562-0.74609 12.406-4.9883 15.09-11.125 2.6797-6.1367 1.8828-13.238-2.0898-18.629-37.086-50.113-91.297-84.844-152.32-97.586-0.64062-0.039063-1.2812-0.042969-1.9219-0.011719 3.207-26.602 6.1211-53.234 8.7422-79.895h-0.003907c57.375 10.262 111.06 35.379 155.7 72.844 44.645 37.465 78.695 85.973 98.762 140.7 2.2969 6.293 7.7734 10.883 14.371 12.039 6.5977 1.1602 13.312-1.2891 17.617-6.4258 4.3008-5.1367 5.5352-12.176 3.2422-18.469-22.398-61.102-60.469-115.24-110.39-156.99s-109.94-69.645-174.04-80.883c-0.60547-0.011719-1.2148 0.007812-1.8203 0.058594 2.3242-26.684 4.3398-53.387 6.043-80.105 91.082 14.062 175.68 55.66 242.43 119.21s112.45 146 130.98 236.27c1.3359 6.5664 6.0703 11.922 12.422 14.047 6.3555 2.125 13.359 0.70313 18.375-3.7344 5.0195-4.4375 7.2891-11.219 5.9531-17.781z"/>
 <path d="m839.33 545.59c-2.1953-6.3203-7.5938-10.996-14.168-12.262-6.5703-1.2656-13.32 1.0664-17.707 6.1211-4.3906 5.0508-5.75 12.062-3.5742 18.391l1.6289 4.9258c2.5898 8.1758 4.6992 16.492 6.3164 24.91 1.2617 6.5781 5.9336 11.984 12.258 14.184 6.3281 2.1992 13.348 0.85547 18.414-3.5234s7.4102-11.129 6.1523-17.707c-1.8867-9.8594-4.3477-19.602-7.3789-29.168z"/>
</svg>
