<?xml version="1.0" encoding="UTF-8"?>
<svg width="1200pt" height="1200pt" version="1.1" viewBox="0 0 1200 1200" xmlns="http://www.w3.org/2000/svg">
 <path d="m456.28 528.52 4.5469-7.8281c14.156-24.281 34.594-44.344 59.109-57.984l5.7656-3.1875-163.78-341.29c-3.6094-7.5-10.641-12.797-18.797-14.203-8.1094-1.3594-16.594 1.2656-22.453 7.1719l-122.72 122.72c-4.8281 4.8281-7.5 11.297-7.5 18.141s2.6719 13.312 7.5 18.141z"/>
 <path d="m444.66 639.37c-3.4219-12.938-5.1562-26.391-5.1562-39.938 0-14.625 2.0156-29.062 6-42.844l1.8281-6.3281-357.1-125.53c-7.8281-2.7188-16.547-1.5469-23.344 3.2812-6.7969 4.7812-10.828 12.609-10.828 20.953v173.53c0 14.156 11.531 25.641 25.641 25.641h365.29z"/>
 <path d="m517.26 734.76c-24.234-14.156-44.297-34.594-57.984-59.203l-3.1875-5.7656-341.26 163.82c-7.5 3.6094-12.797 10.641-14.203 18.797-1.4062 8.2031 1.2656 16.594 7.1719 22.453l122.72 122.81c4.8281 4.8281 11.297 7.5 18.141 7.5s13.312-2.6719 18.141-7.5l258.32-258.32z"/>
 <path d="m553.13 750.14-6.375-1.8281-125.39 356.95c-2.7656 7.8281-1.5 16.547 3.2812 23.344s12.609 10.828 20.953 10.828h173.53c14.156 0 25.641-11.531 25.641-25.641v-365.21l-8.8125 2.3438c-26.906 7.1719-56.344 6.8438-82.828-0.79688z"/>
 <path d="m735.94 670.36-4.5469 7.875c-14.109 24.281-34.594 44.344-59.203 58.078l-5.7656 3.1875 163.78 341.21c3.6094 7.5 10.641 12.797 18.797 14.156 1.4531 0.23438 2.8594 0.375 4.3125 0.375 6.75 0 13.312-2.6719 18.141-7.5l122.81-122.72c4.8281-4.8281 7.5469-11.297 7.5469-18.141s-2.6719-13.312-7.5-18.141z"/>
 <path d="m1110.4 550.74h-365.21l2.3438 8.8125c3.4219 12.938 5.1562 26.391 5.1562 39.891 0 14.672-2.0156 29.156-6 42.938l-1.8281 6.3281 356.95 125.39c2.7656 0.98438 5.625 1.4531 8.4844 1.4531 5.25 0 10.453-1.5938 14.859-4.7344 6.7969-4.7812 10.828-12.609 10.828-20.953v-173.53c0.046875-14.062-11.438-25.594-25.594-25.594z"/>
 <path d="m674.95 464.11c11.531 6.7031 22.266 14.953 31.875 24.562 10.406 10.406 19.172 22.031 26.156 34.594l3.1875 5.7656 341.06-163.74c7.5-3.6094 12.797-10.641 14.203-18.797 1.4062-8.2031-1.2656-16.594-7.1719-22.453l-122.68-122.72c-9.9844-9.9844-26.297-9.9844-36.281 0l-258.24 258.24z"/>
 <path d="m638.9 448.82 6.3281 1.8281 125.53-357.05c2.7656-7.8281 1.5469-16.547-3.2344-23.344s-12.656-10.828-20.953-10.828h-173.58c-14.156 0-25.641 11.531-25.641 25.641v365.29l8.8125-2.3438c26.906-7.125 56.203-6.7969 82.734 0.79687z"/>
 <path d="m710.02 599.48c0 62.906-51 113.95-113.95 113.95-62.906 0-113.95-51.047-113.95-113.95 0-62.953 51.047-114 113.95-114 62.953 0 113.95 51.047 113.95 114"/>
</svg>
