<?xml version="1.0" encoding="UTF-8"?>
<svg width="1200pt" height="1200pt" version="1.1" viewBox="0 0 1200 1200" xmlns="http://www.w3.org/2000/svg">
 <path d="m789.38 547.5h60v20.625h-60z"/>
 <path d="m789.38 581.25h60v20.625h-60z"/>
 <path d="m789.38 615h60v20.625h-60z"/>
 <path d="m789.38 648.75h60v20.625h-60z"/>
 <path d="m789.38 684.38h60v20.625h-60z"/>
 <path d="m789.38 718.12h60v20.625h-60z"/>
 <path d="m789.38 751.88h60v20.625h-60z"/>
 <path d="m789.38 785.62h60v20.625h-60z"/>
 <path d="m789.38 819.38h60v20.625h-60z"/>
 <path d="m789.38 853.12h60v20.625h-60z"/>
 <path d="m789.38 888.75h60v20.625h-60z"/>
 <path d="m789.38 922.5h60v20.625h-60z"/>
 <path d="m718.12 311.25h60v20.625h-60z"/>
 <path d="m718.12 345h60v20.625h-60z"/>
 <path d="m718.12 380.62h60v20.625h-60z"/>
 <path d="m718.12 414.38h60v20.625h-60z"/>
 <path d="m718.12 448.12h60v20.625h-60z"/>
 <path d="m718.12 481.88h60v20.625h-60z"/>
 <path d="m718.12 515.62h60v20.625h-60z"/>
 <path d="m718.12 549.38h60v20.625h-60z"/>
 <path d="m855 345h60v20.625h-60z"/>
 <path d="m855 380.62h60v20.625h-60z"/>
 <path d="m855 414.38h60v20.625h-60z"/>
 <path d="m855 448.12h60v20.625h-60z"/>
 <path d="m855 481.88h60v20.625h-60z"/>
 <path d="m855 515.62h60v20.625h-60z"/>
 <path d="m243.75 243.75h60v20.625h-60z"/>
 <path d="m243.75 277.5h60v20.625h-60z"/>
 <path d="m243.75 311.25h60v20.625h-60z"/>
 <path d="m243.75 345h60v20.625h-60z"/>
 <path d="m243.75 380.62h60v20.625h-60z"/>
 <path d="m243.75 414.38h60v20.625h-60z"/>
 <path d="m243.75 448.12h60v20.625h-60z"/>
 <path d="m243.75 481.88h60v20.625h-60z"/>
 <path d="m243.75 515.62h60v20.625h-60z"/>
 <path d="m243.75 549.38h60v20.625h-60z"/>
 <path d="m243.75 585h60v20.625h-60z"/>
 <path d="m243.75 618.75h60v20.625h-60z"/>
 <path d="m547.5 547.5h60v20.625h-60z"/>
 <path d="m547.5 581.25h60v20.625h-60z"/>
 <path d="m547.5 615h60v20.625h-60z"/>
 <path d="m547.5 648.75h60v20.625h-60z"/>
 <path d="m547.5 684.38h60v20.625h-60z"/>
 <path d="m547.5 718.12h60v20.625h-60z"/>
 <path d="m547.5 751.88h60v20.625h-60z"/>
 <path d="m547.5 785.62h60v20.625h-60z"/>
 <path d="m547.5 819.38h60v20.625h-60z"/>
 <path d="m547.5 853.12h60v20.625h-60z"/>
 <path d="m547.5 888.75h60v20.625h-60z"/>
 <path d="m547.5 922.5h60v20.625h-60z"/>
 <path d="m391.88 311.25h60v20.625h-60z"/>
 <path d="m391.88 345h60v20.625h-60z"/>
 <path d="m391.88 380.62h60v20.625h-60z"/>
 <path d="m391.88 414.38h60v20.625h-60z"/>
 <path d="m391.88 448.12h60v20.625h-60z"/>
 <path d="m391.88 481.88h60v20.625h-60z"/>
 <path d="m391.88 515.62h60v20.625h-60z"/>
 <path d="m391.88 549.38h60v20.625h-60z"/>
 <path d="m159.38 620.62h60v20.625h-60z"/>
 <path d="m159.38 656.25h60v20.625h-60z"/>
 <path d="m159.38 690h60v20.625h-60z"/>
 <path d="m159.38 723.75h60v20.625h-60z"/>
 <path d="m159.38 757.5h60v20.625h-60z"/>
 <path d="m159.38 791.25h60v20.625h-60z"/>
 <path d="m159.38 825h60v20.625h-60z"/>
 <path d="m159.38 860.62h60v20.625h-60z"/>
 <path d="m468.75 620.62h60v20.625h-60z"/>
 <path d="m468.75 656.25h60v20.625h-60z"/>
 <path d="m468.75 690h60v20.625h-60z"/>
 <path d="m468.75 723.75h60v20.625h-60z"/>
 <path d="m468.75 757.5h60v20.625h-60z"/>
 <path d="m468.75 791.25h60v20.625h-60z"/>
 <path d="m468.75 825h60v20.625h-60z"/>
 <path d="m468.75 860.62h60v20.625h-60z"/>
 <path d="m870 705h230.62v80.625h-230.62z"/>
 <path d="m624.38 705h151.88v80.625h-151.88z"/>
 <path d="m232.5 705h223.12v80.625h-223.12z"/>
 <path d="m99.375 705h48.75v80.625h-48.75z"/>
 <path d="m789.38 408.75h52.5v80.625h-52.5z"/>
 <path d="m928.12 412.5h174.38v80.625h-174.38z"/>
 <path d="m316.88 412.5h61.875v80.625h-61.875z"/>
 <path d="m88.125 412.5h138.75v80.625h-138.75z"/>
 <path d="m470.62 412.5h226.88v80.625h-226.88z"/>
 <path d="m931.88 1008.8h-427.5v-67.5h-106.88v-97.5h-112.5v86.25h-178.12v-95.625h-54.375v-187.5h54.375v-97.5h-75v-198.75h97.5v-159.38h948.75v155.62h91.875v215.62h-90v73.125h75v211.88h-223.12zm-397.5-30h367.5v-163.12h223.12v-150h-75v-133.12h90v-155.62h-91.875v-155.62h-888.75v159.38h-97.5v140.62h75v157.5h-54.375v125.62h54.375v95.625h116.25v-86.25h172.5v99.375h106.88v65.625z"/>
</svg>
