<?xml version="1.0" encoding="UTF-8"?>
<svg width="1200pt" height="1200pt" version="1.1" viewBox="0 0 1200 1200" xmlns="http://www.w3.org/2000/svg">
 <path d="m1035.4 536.63v344.29h46.547c28.688 0 52.078-24.234 52.078-54v-318.94c0-29.766-23.391-54-52.078-54h-46.547v82.922z"/>
 <path d="m946.08 542.63h77.297v249.37h-77.297z"/>
 <path d="m685.55 255.37h115.55c16.922 0 30.609-13.688 30.609-30.609s-13.688-30.609-30.609-30.609h-318c-16.922 0-30.609 13.688-30.609 30.609s13.688 30.609 30.609 30.609z"/>
 <path d="m604.78 267.37h74.766v65.625h-74.766z"/>
 <path d="m96.609 865.55c16.922 0 30.609-13.688 30.609-30.609v-318c0-16.922-13.688-30.609-30.609-30.609s-30.609 13.688-30.609 30.609v318c0 16.922 13.688 30.609 30.609 30.609z"/>
 <path d="m139.22 638.63h65.625v74.766h-65.625z"/>
 <path d="m453.24 367.45-43.688 76.547c-11.531 20.156-33.234 32.766-56.531 32.766h-97.078c-21.609 0-39.141 17.531-39.141 39.141v323.86c0 21.609 17.531 39.141 39.141 39.141h178.31c24.141 0 45.844 13.453 56.625 35.062l30.609 61.312c9.4688 18.938 28.547 30.703 49.781 30.703h299.53c34.922 0 63.375-28.453 63.375-63.375v-459c0-20.531-16.688-37.219-37.219-37.219-22.688 0-43.312-11.531-55.312-30.703l-30.609-49.312c-8.1562-13.219-22.312-21-37.781-21h-281.29c-15.938 0-30.703 8.625-38.625 22.453zm74.297 86.766 29.625 22.922c9.9375-5.1562 20.391-9.375 31.219-12.703l4.7812-37.453c0.375-3 2.8594-5.2969 6-5.2969h92.156c3 0 5.5312 2.2969 6 5.2969l4.9219 38.062c10.453 3.375 20.625 7.5469 30.375 12.703l30.469-23.531c2.3906-1.7812 5.7656-1.6875 7.9219 0.46875l65.156 65.156c2.1562 2.1562 2.3906 5.5312 0.46875 7.9219l-23.766 30.844c4.9219 9.4688 9 19.547 12.234 29.859l38.766 4.9219c3 0.375 5.2969 2.8594 5.2969 6v92.156c0 3-2.2969 5.5312-5.2969 6l-38.766 5.0625c-3.2344 10.453-7.4531 20.391-12.234 29.859l23.766 30.844c1.7812 2.3906 1.6875 5.7656-0.46875 7.9219l-65.156 65.156c-2.1562 2.1562-5.5312 2.3906-7.9219 0.46875l-30.469-23.531c-9.7031 5.1562-19.922 9.375-30.375 12.703l-4.9219 38.062c-0.375 3-2.8594 5.2969-6 5.2969h-92.156c-3 0-5.5312-2.2969-6-5.2969l-4.7812-37.453c-10.781-3.375-21.234-7.5469-31.219-12.703l-29.625 22.922c-2.3906 1.7812-5.7656 1.6875-7.9219-0.46875l-65.156-65.156c-2.1562-2.1562-2.3906-5.5312-0.46875-7.9219l22.688-29.391c-5.2969-10.078-9.7031-20.766-13.219-31.688l-36.703-4.6875c-3-0.375-5.2969-2.8594-5.2969-6v-92.156c0-3 2.2969-5.5312 5.2969-6l36.703-4.6875c3.4688-10.922 7.7812-21.609 13.219-31.688l-22.688-29.391c-1.7812-2.3906-1.6875-5.7656 0.46875-7.9219l65.156-65.156c2.1562-2.1562 5.5312-2.3906 7.9219-0.46875z"/>
 <path d="m488.39 552.94c1.4531 1.9219 1.6875 4.4531 0.46875 6.6094-6.375 11.531-11.531 23.766-15.141 36.469-0.70312 2.2969-2.625 3.9375-5.0625 4.3125l-35.391 4.5469v81.609l35.391 4.5469c2.3906 0.375 4.3125 2.0625 5.0625 4.3125 3.7031 12.703 8.7656 24.938 15.141 36.469 1.2188 2.0625 0.9375 4.6875-0.46875 6.6094l-21.844 28.312 57.703 57.703 28.547-22.078c1.9219-1.4531 4.4531-1.6875 6.4688-0.46875 11.297 6.1406 23.391 11.062 36 14.625 2.2969 0.60938 3.9375 2.625 4.3125 5.0625l4.6875 36.141h81.609l4.6875-36.609c0.375-2.3906 1.9219-4.3125 4.2188-5.0625 12.234-3.6094 24-8.625 35.156-14.766 2.1562-1.2188 4.6875-0.9375 6.6094 0.46875l29.391 22.688 57.703-57.703-22.922-29.766c-1.4531-1.9219-1.6875-4.4531-0.46875-6.4688 5.8594-10.922 10.688-22.547 14.297-34.781 0.70312-2.2969 2.625-3.9375 5.0625-4.3125l37.312-4.7812v-81.609l-37.312-4.7812c-2.3906-0.375-4.3125-2.0625-5.0625-4.3125-3.6094-12.234-8.3906-23.859-14.297-34.781-1.0781-2.0625-0.9375-4.6875 0.46875-6.4688l22.922-29.766-57.703-57.703-29.391 22.688c-1.9219 1.4531-4.4531 1.6875-6.6094 0.46875-11.156-6.1406-22.922-11.156-35.156-14.766-2.2969-0.70312-3.9375-2.625-4.2188-5.0625l-4.6875-36.609h-81.609l-4.6875 36.141c-0.375 2.3906-2.0625 4.3125-4.3125 5.0625-12.609 3.6094-24.703 8.5312-36 14.625-2.0625 1.2188-4.6875 0.9375-6.4688-0.46875l-28.547-22.078-57.703 57.703 21.844 28.312zm155.9 4.9219c48.375 0 87.703 39.375 87.703 87.703 0 48.375-39.375 87.703-87.703 87.703-48.375 0-87.703-39.375-87.703-87.703 0-48.375 39.375-87.703 87.703-87.703z"/>
 <path d="m720 645.61c0 41.812-33.891 75.703-75.703 75.703s-75.75-33.891-75.75-75.703 33.938-75.75 75.75-75.75 75.703 33.938 75.703 75.75"/>
</svg>
