<?xml version="1.0" encoding="UTF-8"?>
<svg width="1200pt" height="1200pt" version="1.1" viewBox="0 0 1200 1200" xmlns="http://www.w3.org/2000/svg">
 <path d="m1050 323.44h-192.19v-121.87h23.438c7.6875 0 14.062-6.375 14.062-14.062v-75c0-7.6875-6.375-14.062-14.062-14.062h-375c-7.6875 0-14.062 6.375-14.062 14.062v75c0 7.6875 6.375 14.062 14.062 14.062h23.438v121.87h-117.19c-28.5 0-51.562 23.062-51.562 51.562v23.438h-60.938c-28.5 0-51.562 23.062-51.562 51.562v98.438h-210.94c-7.6875 0-14.062 6.375-14.062 14.062v112.5c0 7.6875 6.375 14.062 14.062 14.062h210.94v98.438c0 28.5 23.062 51.562 51.562 51.562h60.938v23.438c0 28.5 23.062 51.562 51.562 51.562h134.44c-6.9375 47.625-47.625 84.375-96.938 84.375h-75c-28.5 0-51.562 23.062-51.562 51.562v37.5c0 7.6875 6.375 14.062 14.062 14.062h712.5c7.6875 0 14.062-6.375 14.062-14.062v-37.5c0-28.5-23.062-51.562-51.562-51.562h-75c-49.5 0-90.188-36.75-96.938-84.375h209.44c69.75 0 126.56-56.812 126.56-126.56v-337.5c0-69.75-56.812-126.56-126.56-126.56zm-998.44 337.5v-84.375h196.87v84.375zm506.26-459.37h271.87v121.87h-271.87zm-168.74 660.94v-487.5c0-12.938 10.5-23.438 23.438-23.438h585.94v534.37h-585.94c-12.938 0-23.438-10.5-23.438-23.438zm468.94 135.94h-328.5c25.312-20.438 42.562-50.438 46.312-84.375h235.87c3.75 33.938 21 63.938 46.312 84.375zm42-159.37h-412.5c-28.5 0-51.562-23.062-51.562-51.562s23.062-51.562 51.562-51.562h412.5c28.5 0 51.562 23.062 51.562 51.562s-23.062 51.562-51.562 51.562zm-464.06-389.06c0-28.5 23.062-51.562 51.562-51.562h412.5c28.5 0 51.562 23.062 51.562 51.562s-23.062 51.562-51.562 51.562h-412.5c-28.5 0-51.562-23.062-51.562-51.562zm0 168.74c0-28.5 23.062-51.562 51.562-51.562h412.5c28.5 0 51.562 23.062 51.562 51.562s-23.062 51.562-51.562 51.562h-412.5c-28.5 0-51.562-23.062-51.562-51.562zm234.37-356.26c0 18-14.812 32.812-32.812 32.812s-32.812-14.812-32.812-32.812 14.812-32.812 32.812-32.812 32.812 14.812 32.812 32.812zm112.5 0c0 18-14.812 32.812-32.812 32.812s-32.812-14.812-32.812-32.812 14.812-32.812 32.812-32.812 32.812 14.812 32.812 32.812z"/>
</svg>
