<?xml version="1.0" encoding="UTF-8"?>
<svg width="1200pt" height="1200pt" version="1.1" viewBox="0 0 1200 1200" xmlns="http://www.w3.org/2000/svg">
 <path d="m248.44 576.56v84.375h-196.87v-84.375zm51.562-150c-12.938 0-23.438 10.5-23.438 23.438v337.5c0 12.938 10.5 23.438 23.438 23.438h60.938v-384.37zm750-75h-23.438v534.37h23.438c54.188 0 98.438-44.25 98.438-98.438v-337.5c0-54.188-44.25-98.438-98.438-98.438zm-37.5 675h-637.5c-12.938 0-23.438 10.5-23.438 23.438v23.438h684.37v-23.438c0-12.938-10.5-23.438-23.438-23.438zm-200.81-112.5h-235.87c-3.75 33.938-21 63.938-46.312 84.375h328.5c-25.312-20.438-42.562-50.438-46.312-84.375zm186.74-562.5v534.37h-585.94c-12.938 0-23.438-10.5-23.438-23.438v-487.5c0-12.938 10.5-23.438 23.438-23.438zm-46.875 435.94c0-28.5-23.062-51.562-51.562-51.562h-412.5c-28.5 0-51.562 23.062-51.562 51.562s23.062 51.562 51.562 51.562h412.5c28.5 0 51.562-23.062 51.562-51.562zm0-168.74c0-28.5-23.062-51.562-51.562-51.562h-412.5c-28.5 0-51.562 23.062-51.562 51.562s23.062 51.562 51.562 51.562h412.5c28.5 0 51.562-23.062 51.562-51.562zm0-168.74c0-28.5-23.062-51.562-51.562-51.562h-412.5c-28.5 0-51.562 23.062-51.562 51.562s23.062 51.562 51.562 51.562h412.5c28.5 0 51.562-23.062 51.562-51.562zm-121.87-248.44v121.87h-271.87v-121.87zm-159.37 60.938c0-18-14.812-32.812-32.812-32.812s-32.812 14.812-32.812 32.812 14.812 32.812 32.812 32.812 32.812-14.812 32.812-32.812zm112.5 0c0-18-14.812-32.812-32.812-32.812s-32.812 14.812-32.812 32.812 14.812 32.812 32.812 32.812 32.812-14.812 32.812-32.812zm-262.5-135.94v46.875h346.87v-46.875zm379.69 300h-412.5c-12.938 0-23.438 10.5-23.438 23.438s10.5 23.438 23.438 23.438h412.5c12.938 0 23.438-10.5 23.438-23.438s-10.5-23.438-23.438-23.438zm0 337.5h-412.5c-12.938 0-23.438 10.5-23.438 23.438s10.5 23.438 23.438 23.438h412.5c12.938 0 23.438-10.5 23.438-23.438s-10.5-23.438-23.438-23.438zm0-168.74h-412.5c-12.938 0-23.438 10.5-23.438 23.438s10.5 23.438 23.438 23.438h412.5c12.938 0 23.438-10.5 23.438-23.438s-10.5-23.438-23.438-23.438z"/>
</svg>
