<?xml version="1.0" encoding="UTF-8"?>
<svg width="1200pt" height="1200pt" version="1.1" viewBox="0 0 1200 1200" xmlns="http://www.w3.org/2000/svg">
 <path d="m1011.6 364.8h-73.199l-0.003906 427.2h73.199c38.398 0 68.398-31.199 68.398-68.398l0.003906-289.2c0-38.398-30-69.598-68.398-69.598z"/>
 <path d="m312 436.8-43.199 70.801v142.8l43.199 70.801h28.801l70.801 70.801v-426l-70.801 70.801z"/>
 <path d="m234 543.6c-10.801 0-19.199 7.1992-20.398 18h-93.602v34.801h92.398c1.1992 9.6016 9.6016 18 20.398 18 12 0 20.398-9.6016 20.398-21.602l0.003907-28.801c1.1992-10.801-8.3984-20.398-19.199-20.398z"/>
 <path d="m426 792h498v-427.2h-498zm447.6-28.801h-398.4c-8.3984 0-14.398-6-14.398-14.398 0-8.3984 6-14.398 14.398-14.398h398.4c8.3984 0 14.398 6 14.398 14.398 0.003906 8.3984-5.9961 14.398-14.395 14.398zm0-56.398h-398.4c-8.3984 0-14.398-6-14.398-14.398 0-8.3984 6-14.398 14.398-14.398h398.4c8.3984 0 14.398 6 14.398 14.398 0.003906 8.3984-5.9961 14.398-14.395 14.398zm0-57.602h-398.4c-8.3984 0-14.398-6-14.398-14.398 0-8.3984 6-14.398 14.398-14.398h398.4c8.3984 0 14.398 6 14.398 14.398 0.003906 8.3984-5.9961 14.398-14.395 14.398zm-398.4-255.6h398.4c8.3984 0 14.398 6 14.398 14.398s-6 14.398-14.398 14.398h-398.4c-8.3984 0-14.398-6-14.398-14.398 1.1992-8.3984 7.1992-14.398 14.398-14.398zm0 57.598h398.4c8.3984 0 14.398 6 14.398 13.199 0 8.3984-6 13.199-14.398 13.199l-398.4 0.003906c-8.3984 0-14.398-6-14.398-13.199 1.1992-7.2031 7.1992-13.203 14.398-13.203zm0 56.402h398.4c8.3984 0 14.398 6 14.398 14.398s-6 14.398-14.398 14.398h-398.4c-8.3984 0-14.398-6-14.398-14.398 1.1992-8.3984 7.1992-14.398 14.398-14.398zm0 57.598h398.4c8.3984 0 14.398 6 14.398 14.398 0 8.3984-6 14.398-14.398 14.398l-398.4 0.003906c-8.3984 0-14.398-6-14.398-14.398 1.1992-8.4023 7.1992-14.402 14.398-14.402z"/>
 <path d="m781.2 307.2c0-15.602-12-27.602-26.398-27.602l-158.4 0.003906c-15.602 0-27.602 12-27.602 27.602v43.199h212.4zm-106.8 30c-12 0-21.602-9.6016-21.602-21.602 0-3.6016 1.1992-6 2.3984-9.6016l28.801 28.801c-2.3945 1.2031-5.9961 2.4023-9.5977 2.4023zm19.203-12-28.801-28.801c2.3984-1.1992 6-2.3984 9.6016-2.3984 12 0 21.602 9.6016 21.602 21.602-0.003906 3.5977-1.2031 6-2.4023 9.5977z"/>
 <path d="m900 848.4h-7.1992c-69.602-4.8008-84-42-96-42h-242.4c-13.199 0-27.602 39.602-104.4 42-4.8008 0-9.6016 4.8008-9.6016 9.6016v51.602c0 4.8008 4.8008 9.6016 9.6016 9.6016h442.8l7.1953-0.003906c4.8008 0 8.3984-4.8008 8.3984-9.6016v-51.602c0-4.7969-3.5977-9.5977-8.3984-9.5977z"/>
</svg>
