<?xml version="1.0" encoding="UTF-8"?>
<svg width="1200pt" height="1200pt" version="1.1" viewBox="0 0 1200 1200" xmlns="http://www.w3.org/2000/svg">
 <path d="m1049.7 512.28-646.91-175.52c-23.52-6.3594-47.699-9.6016-71.941-9.6016-115.57 0-218.23 72.023-255.53 179.26-10.164 29.324-15.324 60.012-15.324 91.223 0 96.035 48.602 184.02 129.98 235.31 41.449 26.113 90.07 39.91 140.58 39.91h0.035156c16.02 0 32.23-1.4297 48.18-4.2227l660.39-117.86c58.406-10.43 100.83-61.07 100.83-120.43 0-55.078-37.129-103.63-90.301-118.05zm-935.53 87.406c0-120 97.621-217.63 217.61-217.63 120 0 217.69 97.633 217.69 217.63s-97.691 217.6-217.69 217.6-217.61-97.586-217.61-217.6zm472.74 0c0-81.648-38.52-154.15-98.207-200.84l486.76 132.09c-38.039 16.477-64.703 54.277-64.703 98.41 0 42.07 24.434 78.098 59.652 95.676l-501.48 89.508c70.871-45.324 117.98-124.48 117.98-214.84zm500.98 29.652c0 38.508-31.344 69.816-69.852 69.816s-69.816-31.309-69.816-69.816c0-38.52 31.309-69.828 69.816-69.828s69.852 31.309 69.852 69.828z"/>
 <path d="m384.07 599.68c0-28.871-23.398-52.285-52.297-52.285-28.883 0-52.297 23.41-52.297 52.285 0 28.871 23.41 52.309 52.297 52.309 28.898 0 52.297-23.438 52.297-52.309zm-52.305 14.855c-8.1953 0-14.844-6.6719-14.844-14.855 0-8.1602 6.6602-14.832 14.844-14.832s14.844 6.6719 14.844 14.832c0.011719 8.1836-6.6484 14.855-14.844 14.855z"/>
 <path d="m386.45 756.54v-24.863l17.594 17.605c3.6602 3.6602 8.4492 5.4844 13.246 5.4844 4.8008 0 9.5898-1.8242 13.246-5.4844l50.867-50.832c3.5156-3.5156 5.4844-8.2695 5.4844-13.246 0-4.9453-1.9688-9.7305-5.4844-13.246l-17.602-17.598h24.863c10.344 0 18.73-8.375 18.73-18.719v-71.914c0-10.344-8.375-18.73-18.73-18.73l-24.863-0.003906 17.629-17.594c3.5156-3.5039 5.4844-8.2578 5.4844-13.234 0-4.9805-1.9688-9.7305-5.4844-13.246l-50.902-50.855c-7.3086-7.3086-19.176-7.3086-26.484 0l-17.594 17.594v-24.863c0-10.355-8.375-18.73-18.73-18.73h-71.891c-10.355 0-18.73 8.375-18.73 18.73v24.887l-17.605-17.605c-3.5039-3.5039-8.2578-5.4844-13.234-5.4844-4.9805 0-9.7305 1.9805-13.246 5.4844l-50.832 50.855c-7.3203 7.3086-7.3203 19.164 0 26.484l17.594 17.594h-24.863c-10.355 0-18.73 8.375-18.73 18.73v71.914c0 10.332 8.375 18.719 18.73 18.719h24.863l-17.594 17.594c-7.3203 7.3086-7.3203 19.176 0 26.484l50.832 50.832c3.6602 3.6602 8.4492 5.4844 13.246 5.4844 4.8008 0 9.5742-1.8242 13.234-5.4844l17.605-17.605v24.863c0 10.355 8.3633 18.73 18.73 18.73h71.891c10.352-0.007812 18.73-8.375 18.73-18.73zm-84.734-66.023c-4.4648-1.4531-8.8086-3.2773-12.828-5.2695-18.289-9.2383-33.395-24.371-42.539-42.492-2.0508-4.1289-3.9102-8.4609-5.375-13.031-3.2148-9.6602-4.8594-19.766-4.8594-30.023 0-10.262 1.6562-20.375 4.8945-30.191 1.4297-4.4414 3.2891-8.7617 5.2695-12.781 9.1797-18.238 24.312-33.359 42.562-42.527 4.0664-2.0508 8.3398-3.8633 12.984-5.3398 9.5391-3.2383 19.633-4.8594 29.941-4.8594s20.41 1.6328 30.215 4.9062c4.4297 1.4414 8.7461 3.2656 12.805 5.2812 18.215 9.1797 33.312 24.277 42.527 42.551 2.0508 4.0781 3.8398 8.3516 5.3398 12.984 3.1797 9.457 4.7891 19.547 4.7891 29.977 0 10.43-1.6211 20.508-4.8594 30.168-1.4297 4.3789-3.2266 8.7109-5.2695 12.781-9.2148 18.254-24.312 33.359-42.383 42.504l-0.035157 0.023437h-0.070312c-4.1406 2.0625-8.4844 3.8633-12.949 5.3633-4.8945 1.6211-9.875 2.7852-14.914 3.6133-9.9844 1.5703-20.258 1.5703-30.289 0-5.043-0.80469-10.059-1.9922-14.957-3.6367zm115.56 19.031-4.5352-4.5c9.1445-7.0781 17.328-15.254 24.395-24.395l4.5352 4.5469zm52.668-92.625h-6.3945c0.73047-5.6992 1.3438-11.398 1.3438-17.23 0-5.8555-0.625-11.555-1.3438-17.23h6.3945zm-28.227-102.73-4.5703 4.5469c-7.0664-9.1445-15.254-17.34-24.395-24.395l4.5352-4.5352zm-92.723-52.656v6.4336c-11.484-1.4883-23.074-1.4648-34.453 0v-6.4336zm-102.73 28.297 4.5352 4.5469c-9.1094 7.0312-17.293 15.215-24.359 24.359l-4.5352-4.5469zm-52.633 92.641h6.4062c-0.76953 5.7109-1.3906 11.438-1.3906 17.23 0 5.7969 0.625 11.508 1.3906 17.23h-6.4062zm28.27 102.73 4.5352-4.5234c7.0195 9.0977 15.215 17.27 24.359 24.324l-4.5352 4.5469zm92.641 52.633v-6.3945c5.7109 0.75781 11.41 1.3789 17.23 1.3789 5.8203 0 11.52-0.63672 17.23-1.3789v6.3945z"/>
</svg>
