<?xml version="1.0" encoding="UTF-8"?>
<svg width="1200pt" height="1200pt" version="1.1" viewBox="0 0 1200 1200" xmlns="http://www.w3.org/2000/svg">
 <path d="m802.8 241.2c34.801 0 63.602-28.801 63.602-63.602 0-34.801-28.801-63.602-63.602-63.602s-63.602 28.801-63.602 63.602c0 34.801 28.801 63.602 63.602 63.602zm0-91.199c15.602 0 27.602 12 27.602 27.602 0 15.602-12 27.602-27.602 27.602-15.602 0-27.602-12-27.602-27.602 0-15.602 12-27.602 27.602-27.602z"/>
 <path d="m912 398.4c0-60-49.199-109.2-109.2-109.2s-109.2 49.199-109.2 109.2 49.199 109.2 109.2 109.2c60 0.003906 109.2-49.199 109.2-109.2zm-109.2 73.203c-40.801 0-73.199-32.398-73.199-73.199 0-40.801 32.398-73.199 73.199-73.199s73.199 32.398 73.199 73.199c0 40.797-33.602 73.199-73.199 73.199z"/>
 <path d="m652.8 349.2c10.801-33.602-7.1992-68.398-40.801-79.199-15.602-4.8008-33.602-3.6016-48 3.6016-15.602 7.1992-26.398 20.398-31.199 37.199-10.801 33.602 7.1992 68.398 40.801 79.199 6 2.3984 13.199 3.6016 19.199 3.6016 9.6016 0 19.199-2.3984 28.801-7.1992 15.598-7.2031 26.398-20.402 31.199-37.203zm-33.602-10.801c-4.8008 14.398-20.398 21.602-34.801 18-7.1992-2.3984-12-7.1992-15.602-13.199s-3.6016-14.398-1.1992-20.398c3.6016-12 14.398-19.199 26.398-19.199 2.3984 0 6 0 8.3984 1.1992 13.207 3.5977 21.605 19.199 16.805 33.598z"/>
 <path d="m710.4 525.6c-13.199-9.6016-30-14.398-46.801-10.801-16.801 2.3984-31.199 12-40.801 25.199-20.398 27.602-14.398 68.398 14.398 88.801 10.801 8.3984 24 12 37.199 12 19.199 0 38.398-9.6016 51.602-26.398 19.203-28.801 12.004-68.402-15.598-88.801zm-15.598 67.199c-8.3984 12-26.398 14.398-38.398 6-12-8.3984-14.398-26.398-6-38.398 4.8008-6 10.801-9.6016 18-10.801h4.8008c6 0 10.801 1.1992 15.602 4.8008 11.996 9.5977 15.594 26.398 5.9961 38.398z"/>
 <path d="m942 514.8c-16.801-2.3984-33.602 1.1992-46.801 10.801-13.199 9.6016-22.801 24-25.199 40.801-2.3984 16.801 1.1992 33.602 10.801 46.801 12 16.801 31.199 26.398 51.602 26.398 13.199 0 26.398-3.6016 37.199-12 13.199-9.6016 22.801-24 25.199-40.801 2.3984-16.801-1.1992-33.602-10.801-46.801-10.801-14.398-25.199-22.801-42-25.199zm16.801 66c-1.1992 7.1992-4.8008 13.199-10.801 18-12 8.3984-28.801 6-38.398-6-4.8008-6-6-13.199-4.8008-20.398 1.1992-7.1992 4.8008-13.199 10.801-18 4.8008-3.6016 10.801-4.8008 15.602-4.8008h4.8008c7.1992 1.1992 13.199 4.8008 18 10.801 4.7969 5.9961 5.9961 13.199 4.7969 20.398z"/>
 <path d="m992.4 270c-33.602 10.801-51.602 46.801-40.801 79.199 4.8008 15.602 16.801 28.801 31.199 37.199 9.6016 4.8008 19.199 7.1992 28.801 7.1992 6 0 13.199-1.1992 19.199-3.6016 33.602-10.801 51.602-46.801 40.801-79.199-9.5977-33.598-45.598-51.598-79.199-40.797zm44.402 72c-3.6016 6-8.3984 10.801-15.602 13.199-14.398 4.8008-30-3.6016-34.801-18-4.8008-14.398 3.6016-30 18-34.801 2.3984-1.1992 6-1.1992 8.3984-1.1992 12 0 21.602 7.1992 26.398 19.199 1.2031 8.4023 1.2031 15.602-2.3945 21.602z"/>
 <path d="m1141.2 288c-28.801-90-92.398-164.4-176.4-207.6-85.199-42-181.2-50.398-272.4-20.398-96 31.199-170.4 99.602-210 184.8l-398.4 636c-26.398 30-42 68.398-42 110.4 0 92.398 74.398 166.8 166.8 166.8 44.398 0 84-16.801 114-45.602 0 0 705.6-435.6 706.8-440.4 37.199-30 67.199-68.398 90-112.8 43.199-84 50.398-180 21.598-271.2zm-676.8 220.8c28.801 90 92.398 164.4 176.4 207.6 50.398 26.398 105.6 38.398 160.8 38.398 13.199 0 26.398-1.1992 39.602-2.3984l-472.8 290.4c4.8008-16.801 8.3984-33.602 8.3984-51.602 0-92.398-74.398-166.8-166.8-166.8-18 0-36 3.6016-52.801 8.3984l291.6-466.8c-4.7969 46.805 0.003906 94.805 15.602 142.8zm-386.4 482.4c0-72 58.801-130.8 130.8-130.8s130.8 58.801 130.8 130.8-58.801 130.8-130.8 130.8-130.8-58.801-130.8-130.8zm1009.2-447.6c-38.398 75.602-104.4 132-186 158.4-81.602 26.398-168 19.199-243.6-19.199-75.602-38.398-133.2-104.4-159.6-186-54-168 37.199-348 205.2-403.2 32.398-10.801 66-15.602 99.602-15.602 49.199 0 99.602 12 145.2 34.801 75.605 39.598 132 105.6 158.4 187.2 26.402 80.398 20.402 168-19.199 243.6z"/>
</svg>
