<?xml version="1.0" encoding="UTF-8"?>
<svg width="1200pt" height="1200pt" version="1.1" viewBox="0 0 1200 1200" xmlns="http://www.w3.org/2000/svg">
 <path d="m348.32 161.42c71.457-38.227 152.44-60.977 238.47-63.797v203.32c-49.055 2.5586-95.359 15.477-136.79 36.582zm544.7 18.199c70.652 44.078 130.48 103.91 174.55 174.55l-176.1 101.68c-26.027-39.934-60.188-74.09-100.13-100.13zm-592.79 307.67c-22.133 43.438-35.246 92.227-36.891 143.9-0.16016 6.1484-5.1836 11.035-11.332 11.035-35.355 0.023438-144.74 0.023438-180.53 0.023438-3.043 0-5.9492-1.2227-8.0898-3.3867-2.1289-2.1797-3.3047-5.1094-3.2539-8.1523 1.8555-88.492 24.777-171.8 63.984-245.1zm404.88 55.102 73.09-73.086c9.2656-9.2812 21.848-14.488 34.961-14.488 13.102 0 25.68 5.207 34.949 14.488h0.011718c9.2656 9.2656 14.473 21.844 14.473 34.961 0 13.113-5.207 25.68-14.473 34.957l-89.891 89.891-37.457-64.863-0.015625-0.011719c-4.5508-7.8906-9.8086-15.203-15.648-21.848zm-562.8-188.21c44.094-70.648 103.91-130.48 174.56-174.55l101.68 176.1c-39.934 26.031-74.09 60.199-100.13 100.13zm480.79-256.55c86.027 2.8203 167.01 25.57 238.48 63.797l-101.68 176.11c-41.434-21.105-87.75-34.023-136.8-36.582zm462.67 288c39.203 73.285 62.141 156.59 63.973 245.09 0.046875 3.043-1.1133 5.9727-3.2539 8.1367-2.1289 2.168-5.0352 3.3906-8.0781 3.3906-35.793 0.011719-145.18 0.011719-180.54 0.011719-6.1484 0-11.184-4.8984-11.344-11.059-1.6211-51.676-14.746-100.46-36.863-143.9zm-396.47 196.77 213.44 369.6c17.543 30.371 17.543 67.062 0 97.422-17.555 30.422-49.348 48.719-84.434 48.719h-426.77c-35.098 0-66.84-18.297-84.383-48.719-17.543-30.359-17.543-67.051 0-97.422l213.38-369.6c17.555-30.406 49.301-48.754 84.383-48.754 35.098 0 66.844 18.348 84.387 48.754zm-30.582 28.246c-11.27-19.559-31.199-31.078-53.805-31.078-22.539 0-42.531 11.52-53.801 31.102l-201.13 348.37c-11.27 19.57-11.27 42.57-0.011719 62.129l0.011719 0.011719c11.27 19.52 31.262 31.074 53.801 31.074h402.27c22.578 0 42.508-11.539 53.828-31.039l0.011719-0.023438c11.27-19.582 11.27-42.582 0.011719-62.141v-0.011719l-201.18-348.37zm-31.473 18.148 0.011719 0.011719 201.18 348.37c4.6758 8.1289 4.6758 17.676 0.023438 25.805-4.7383 8.1289-13.012 12.953-22.402 12.953h-402.27c-9.3633 0-17.652-4.8125-22.34-12.902-4.6797-8.1406-4.6797-17.715 0.011719-25.855l201.13-348.37c4.6875-8.1289 12.977-12.902 22.328-12.902 9.3906 0 17.656 4.7734 22.332 12.891zm-22.332 259.71c11.223 0 20.438-8.8594 20.848-20.078l5.2578-145.8c0.22266-5.875-1.7461-10.996-5.8398-15.227-4.0469-4.2305-9.1289-6.3711-15.008-6.3711h-10.5c-5.8906 0-10.914 2.1406-15.008 6.3711-4.0586 4.2305-6.0117 9.3516-5.8398 15.227l5.2969 145.8c0.40625 11.219 9.5742 20.078 20.793 20.078zm0 81.266c14.699 0 26.676-11.977 26.676-26.672 0-14.699-11.977-26.672-26.676-26.672-14.684 0-26.672 11.973-26.672 26.672 0 14.695 11.988 26.672 26.672 26.672z" fill-rule="evenodd"/>
</svg>
